<?xml version="1.0" encoding="utf-8"?>
<!-- Generator: Adobe Illustrator 24.3.0, SVG Export Plug-In . SVG Version: 6.00 Build 0)  -->
<svg version="1.1" id="Layer_1" xmlns="http://www.w3.org/2000/svg" xmlns:xlink="http://www.w3.org/1999/xlink" x="0px" y="0px"
	 viewBox="0 0 1366 768" style="enable-background:new 0 0 1366 768;" xml:space="preserve">
<style type="text/css">
	.st0{fill:#ECECEC;}
	.st1{fill:none;stroke:#8F8F8F;stroke-width:2;stroke-miterlimit:9.6;}
	.st2{fill:none;stroke:#8F8F8F;stroke-width:1.92;stroke-miterlimit:9.6;}
	.st3{fill:#FFEACC;stroke:#FFD4B0;stroke-miterlimit:10;}
	.st4{fill:#4C4E52;}
	.st5{fill:#E3D3FF;stroke:#D7B0FF;stroke-miterlimit:10;}
	.st6{fill:#D1E9FF;stroke:#AFC6FF;stroke-miterlimit:10;}
	.st7{fill:#C0FFC6;stroke:#8AFFA5;stroke-miterlimit:10;}
	.st8{fill:#FFF39C;stroke:#FFE474;stroke-miterlimit:10;}
	.st9{fill:#333333;}
	.st10{font-family:'Retroica';}
	.st11{font-size:10.56px;}
	.st12{font-size:14.3618px;}
	.st13{font-size:12.6949px;}
	.st14{font-size:15.8271px;}
	.st15{font-size:12.1401px;}
	.st16{fill:none;}
	.st17{fill:#3574FF;}
	.st18{fill:#FF7BC9;}
	.st19{fill:#FFFFFF;}
	.st20{fill:none;stroke:#15FF1B;stroke-miterlimit:9.6;}
	.st21{fill:none;stroke:#FFC033;stroke-miterlimit:10;}
	.st22{fill:none;stroke:#CE39FF;stroke-miterlimit:10;}
</style>
<g id="Background">
	<path class="st0" d="M922.8,105.9V55.7c0-4.6-3-10.4-7.6-10.4l-641.6,1.3c-4.6,0-9.1,5.8-9.1,10.4v48.6c0,4-2.9,5.1-6.9,5.1h-26.7
		c-4.6,0-8.7,5.2-8.7,11.6v364.4c0,4.6,3.9,8.2,8.5,8.2l16,0.1c4.6,0,8.5,3,8.5,7.6v80.3c0.7,3.6,2.4,7.2,7,8h93.5
		c4.6,0,9.5,5.2,9.5,9.8l0.6,71.1c2.7,3.5,4.5,7,9.7,5.6l3.6-1C422,657.5,497.9,636,603.3,636c92.8,0,178,18.5,225.3,39.7
		c5.5,2.5,12.8-4.1,10.5-10.5V598c0-4.6,1.3-7.3,5.9-7.3h84.1c4.6,0,8.3-2.4,8.3-7v-80.3c0-4.6,3.7-8.4,8.4-8.4h16.7
		c4.6,0,8.3-3.7,8.3-8.3V122.3c0-5.2-3.1-12-8.3-12l-34.2,1.3C925.3,111.5,922.8,109,922.8,105.9z"/>
	<path class="st1" d="M351.8,590.4h-87.6c-4.6,0-8.4-3.7-8.4-8.4v-79.3c0-4.6-3.7-8.4-8.4-8.4h-16.9c-4.6,0-8.4-3.7-8.4-8.4V374.4"
		/>
	<line class="st2" x1="222.2" y1="374.4" x2="222.2" y2="216"/>
	<path class="st2" d="M222.2,216v-97.2c0-4.6,3.7-8.4,8.4-8.4h104.8c4.6,0,8.4,3.7,8.4,8.4v72.3c0,7.1,5.8,12.9,13,12.9l479.7-2.3
		c7.1,0,12.8-5.8,12.8-12.9v-70.1c0-4.6,3.7-8.4,8.4-8.4h7.7h97.2c4.6,0,8.4,3.7,8.4,8.4V486c0,4.6-3.7,8.4-8.4,8.4h-16.9
		c-4.6,0-8.4,3.7-8.4,8.4V582c0,4.6-3.7,8.4-8.4,8.4h-87.6H810c-1.4,0-2.8-0.4-4-1.1c-9.1-5.1-54.3-27.1-162.7-27.7
		c-4.6,0-8.3-3.7-8.3-8.4v-64.3"/>
	<path class="st2" d="M683,480h116.4c4.6,0,8.4,3.7,8.4,8.4v25.2"/>
	<line class="st2" x1="731" y1="480" x2="731" y2="567.8"/>
	<path class="st2" d="M366.2,590.4v78.3c0,6,6,10,11.6,7.7c45.9-19.1,223.2-80.5,451-1.5c5.5,1.9,11.1-2.1,11.1-7.9v-76.6"/>
	<path class="st2" d="M265.4,110.4V54.9c0-4.6,3.7-8.4,8.4-8.4h641c4.6,0,8.4,3.7,8.4,8.4v55.5"/>
	<path class="st3" d="M300.6,369.3h105.7c3.8,0,7,2.1,7,4.8v73.1c0,2.6-3.1,4.8-7,4.8H300.6c-3.8,0-7-2.1-7-4.8v-73.1
		C293.7,371.4,296.7,369.3,300.6,369.3z"/>
	<line class="st2" x1="840" y1="564.6" x2="840" y2="590.4"/>
	<line class="st2" x1="807.6" y1="537.8" x2="807.6" y2="590.3"/>
	<path class="st2" d="M366.2,590.4h-20.1h-5.3"/>
	<path class="st2" d="M903.2,435.9C839,435.9,840,480,840,480v64.7"/>
	<path class="st2" d="M255.8,507.7h210.4c6,0,10.8-4.9,10.8-10.8V492c0-5.2,4.2-9.5,9.5-9.5h73.4c3.1,0,5.6,2.5,5.6,5.6v14
		c0,3.1,2.5,5.6,5.6,5.6h63.8"/>
	<path class="st2" d="M849.2,118.8c0-4.6,3.7-8.4,8.4-8.4h104.8c4.6,0,8.4,3.7,8.4,8.4V204"/>
	<path class="st2" d="M849.2,216"/>
	<line class="st2" x1="636.3" y1="361.5" x2="636.3" y2="203"/>
	<path class="st2" d="M636.3,223H925c7.2,0,13,5.8,13,13l-0.8,102.7"/>
	<polyline class="st2" points="970.8,435.9 937.4,436.5 937.2,507.8 	"/>
	<path class="st2" d="M313.8,110.4v110.8c0,9.9-8.1,18-18,18h-73.7"/>
	<line class="st2" x1="839.9" y1="523.9" x2="938" y2="523.9"/>
	<polyline class="st2" points="567,203 567,247.8 634.9,247.8 	"/>
	<path id="Study" class="st3" d="M442.5,369.3h105.7c3.8,0,7,2.1,7,4.8v73.1c0,2.6-3.1,4.8-7,4.8H442.5c-3.8,0-7-2.1-7-4.8v-73.1
		C435.5,371.4,438.6,369.3,442.5,369.3z"/>
	<path class="st3" d="M388.7,292.3h48c1.7,0,3.2,1.6,3.2,3.6V350c0,2-1.4,3.6-3.2,3.6h-48c-1.7,0-3.2-1.6-3.2-3.6v-54.1
		C385.5,293.9,386.9,292.3,388.7,292.3z"/>
</g>
<g id="Base">
	<rect x="672.2" y="529.6" class="st4" width="52.8" height="26.4"/>
	<rect x="683.1" y="480.9" class="st4" width="43.7" height="31.8"/>
</g>
<g id="Rooms">
	<a id="PrinterL" xlink:href="#" >
		<g>
			<path class="st5" d="M345.1,336.9v-40.5c0-2.3,1.7-4.1,3.9-4.1h9c2.2,0,3.9,1.8,3.9,4.1v40.5c0,2.3-1.7,4.1-3.9,4.1h-9
				C346.9,341,345.1,339.2,345.1,336.9z"/>
		</g>
	</a>
	<a id="GS_x5F_030" xlink:href="#" >
		<g>
			<path class="st6" d="M368.1,208.1h32.7c3.4,0,6.2,2.7,6.2,6.2v36.5c0,3.4-2.7,6.2-6.2,6.2h-32.7c-3.4,0-6.2-2.7-6.2-6.2v-36.5
				C361.9,210.9,364.6,208.1,368.1,208.1z"/>
		</g>
	</a>
	<a id="GS_x5F_028" xlink:href="#" >
		<g>
			<path class="st6" d="M419.1,208.1h32.7c3.4,0,6.2,2.7,6.2,6.2v36.5c0,3.4-2.7,6.2-6.2,6.2h-32.7c-3.4,0-6.2-2.7-6.2-6.2v-36.5
				C413,210.9,415.7,208.1,419.1,208.1z"/>
		</g>
	</a>
	<a id="GS_x5F_026" xlink:href="#" >
		<g>
			<path class="st6" d="M469.3,208.1H502c3.4,0,6.2,2.7,6.2,6.2v36.5c0,3.4-2.7,6.2-6.2,6.2h-32.7c-3.4,0-6.2-2.7-6.2-6.2v-36.5
				C463.1,210.9,465.9,208.1,469.3,208.1z"/>
		</g>
	</a>
	<a id="Meditation" xlink:href="#" >
		<g>
			<path class="st7" d="M519.9,208.1h32.7c3.4,0,6.2,2.7,6.2,6.2v36.5c0,3.4-2.7,6.2-6.2,6.2h-32.7c-3.4,0-6.2-2.7-6.2-6.2v-36.5
				C513.7,210.9,516.5,208.1,519.9,208.1z"/>
		</g>
	</a>
	<a id="GS_x5F_F" xlink:href="#" >
		<g>
			<path class="st6" d="M631.4,318.6v32.7c0,3.4-2.7,6.2-6.2,6.2h-36.5c-3.4,0-6.2-2.7-6.2-6.2v-32.7c0-3.4,2.7-6.2,6.2-6.2h36.5
				C628.5,312.4,631.4,315.2,631.4,318.6z"/>
		</g>
	</a>
	<g id="GS_x5F_G">
		<path id="_x3C_Group_x3E__2_" class="st6" d="M625.2,306.7h-36.5c-3.4,0-6.2-2.8-6.2-6.2v-11.9c0-3.4,2.8-6.2,6.2-6.2h36.5
			c3.4,0,6.2,2.8,6.2,6.2v11.9C631.4,304,628.6,306.7,625.2,306.7z"/>
	</g>
	<g id="GS_x5F_H">
		<path id="_x3C_Group_x3E__3_" class="st6" d="M625.2,277.4h-36.5c-3.4,0-6.2-2.8-6.2-6.2v-11.9c0-3.4,2.8-6.2,6.2-6.2h36.5
			c3.4,0,6.2,2.8,6.2,6.2v11.9C631.4,274.6,628.6,277.4,625.2,277.4z"/>
	</g>
	<a id="GS_x5F_E" xlink:href="#" >
		<g>
			<path class="st6" d="M631.4,451.3v43.1c0,4.4-3.4,8.1-7.8,8.1h-45.9c-4.2,0-7.8-3.6-7.8-8.1v-43.1c0-4.4,3.4-8.1,7.8-8.1h45.9
				C627.8,443.2,631.4,446.8,631.4,451.3z"/>
		</g>
	</a>
	<a id="PrinterL_1_" xlink:href="#" >
		<g>
			<path class="st5" d="M228.3,482.4v-51.9c0-2.9,2.6-5.3,5.9-5.3h13.6c3.3,0,5.9,2.3,5.9,5.3v51.9c0,2.9-2.6,5.3-5.9,5.3h-13.6
				C231.1,487.6,228.3,485.3,228.3,482.4z"/>
		</g>
	</a>
	<a id="B_x5F_Suite_x5F_C_x5F_060C" xlink:href="#" >
		<g>
			<path class="st8" d="M929.2,245.5v77.6c0,8-5.3,14.6-12,14.6H846c-6.6,0-12-6.5-12-14.6v-77.6c0-8,5.3-14.6,12-14.6h71.2
				C923.7,230.9,929.2,237.4,929.2,245.5z"/>
		</g>
	</a>
	<a id="B_x5F_Suite_x5F_B_x5F_060B" xlink:href="#" >
		<g>
			<path class="st8" d="M821.3,245.5v77.6c0,8-5.3,14.6-12,14.6H738c-6.6,0-12-6.5-12-14.6v-77.6c0-8,5.3-14.6,12-14.6h71.2
				C815.8,230.9,821.3,237.4,821.3,245.5z"/>
		</g>
	</a>
	<g id="IR_x5F_060A">
		<path id="_x3C_Group_x3E__1_" class="st8" d="M707,337.7h-51.8c-4.2,0-7.7-3.4-7.7-7.7v-91.5c0-4.2,3.4-7.7,7.7-7.7H707
			c4.2,0,7.7,3.4,7.7,7.7V330C714.7,334.2,711.2,337.7,707,337.7z"/>
	</g>
	<g id="B_x5F_Suite_x5F_D_x5F_060D_1_">
		<path id="_x3C_Group_x3E_" class="st8" d="M901.5,442.6h19c4.2,0,7.7,3.5,7.7,7.7v59.3c0,4.3-3.4,7.7-7.7,7.7h-64.9
			c-4.2,0-7.7-3.5-7.7-7.7V478C847.9,458,874.5,442.6,901.5,442.6z"/>
	</g>
</g>
<g id="Labels">
	<text transform="matrix(1 0 0 1 587.239 324.7263)" class="st9 st10 st11">Study</text>
	<text transform="matrix(1 0 0 1 587.239 337.4255)" class="st9 st10 st11">Room</text>
	<text transform="matrix(1 0 0 1 587.239 350.0271)" class="st9 st10 st11">F</text>
	<text transform="matrix(0 1 -1 0 618.8672 256.9547)" class="st9 st10 st11">St</text>
	<text transform="matrix(0 1 -1 0 606.168 256.9547)" class="st9 st10 st11">Rm</text>
	<text transform="matrix(0 1 -1 0 593.5664 256.9547)" class="st9 st10 st11">H</text>
	<text transform="matrix(1 0 0 1 519.582 223.1346)" class="st9 st10 st11">Quiet</text>
	<text transform="matrix(1 0 0 1 519.582 235.8346)" class="st9 st10 st11">Room</text>
	<text transform="matrix(1 0 0 1 468.1372 222.9235)" class="st9 st10 st11">Study</text>
	<text transform="matrix(1 0 0 1 468.1372 235.6235)" class="st9 st10 st11">Room</text>
	<text transform="matrix(1 0 0 1 468.1372 248.2235)" class="st9 st10 st11">026</text>
	<text transform="matrix(1 0 0 1 418.2987 222.9235)" class="st9 st10 st11">Study</text>
	<text transform="matrix(1 0 0 1 418.2987 235.6235)" class="st9 st10 st11">Room</text>
	<text transform="matrix(1 0 0 1 418.2987 248.2235)" class="st9 st10 st11">028</text>
	<text transform="matrix(1 0 0 1 367.0898 222.9232)" class="st9 st10 st11">Study</text>
	<text transform="matrix(1 0 0 1 367.0898 235.6232)" class="st9 st10 st11">Room</text>
	<text transform="matrix(1 0 0 1 367.0898 248.2232)" class="st9 st10 st11">030</text>
	<text transform="matrix(-3.267949e-07 -1 1 -3.267949e-07 662.9528 331.0354)" class="st9 st10 st11">Institutional</text>
	<text transform="matrix(-3.267949e-07 -1 1 -3.267949e-07 675.6528 331.0354)" class="st9 st10 st11">Repository</text>
	<text transform="matrix(-3.267949e-07 -1 1 -3.267949e-07 742.4422 330.3069)" class="st9 st10 st11">Beaumier</text>
	<text transform="matrix(-3.267949e-07 -1 1 -3.267949e-07 755.1422 330.3069)" class="st9 st10 st11">Suite B</text>
	<text transform="matrix(-3.267949e-07 -1 1 -3.267949e-07 849.2162 330.3069)" class="st9 st10 st11">Beaumier</text>
	<text transform="matrix(-3.267949e-07 -1 1 -3.267949e-07 861.9162 330.3069)" class="st9 st10 st11">Suite C</text>
	<text transform="matrix(1 0 0 1 668.0212 246.2231)" class="st9 st10 st12">060A</text>
	<text transform="matrix(1 0 0 1 772.4023 246.223)" class="st9 st10 st12">060B</text>
	<text transform="matrix(1 0 0 1 881.5382 246.2229)" class="st9 st10 st12">060C</text>
	<text transform="matrix(1 0 0 1 880.5383 511.5997)" class="st9 st10 st12">060D</text>
	<text transform="matrix(1 0 0 1 861.8876 469.4295)" class="st9 st10 st11">BEAUMIER</text>
	<text transform="matrix(1 0 0 1 861.8876 482.1295)" class="st9 st10 st11">SUITE D</text>
	<text transform="matrix(1 0 0 1 576.6611 461.2041)" class="st9 st10 st13">Study</text>
	<text transform="matrix(1 0 0 1 576.6611 476.4041)" class="st9 st10 st13">Room</text>
	<text transform="matrix(1 0 0 1 576.6611 491.7041)" class="st9 st10 st13">E</text>
	<text transform="matrix(0 1 -1 0 618.6562 286.7449)" class="st9 st10 st11">St</text>
	<text transform="matrix(0 1 -1 0 605.957 286.7449)" class="st9 st10 st11">Rm</text>
	<text transform="matrix(0 1 -1 0 593.3555 286.7449)" class="st9 st10 st11">G</text>
	<text transform="matrix(-1.224647e-16 -1 1 -1.224647e-16 357.2461 335.0566)" class="st9 st10 st11">Printer</text>
	<text transform="matrix(-1.224647e-16 -1 1 -1.224647e-16 238.4564 475.6934)" class="st9 st10 st11">Surface</text>
	<text transform="matrix(-1.224647e-16 -1 1 -1.224647e-16 251.1564 475.6934)" class="st9 st10 st11">Hub</text>
	<text transform="matrix(1 0 0 1 329.6351 407.7881)" class="st9 st10 st14">Study</text>
	<text transform="matrix(1 0 0 1 329.6351 426.7881)" class="st9 st10 st14">Space</text>
	<text transform="matrix(1 0 0 1 469.8656 405.7881)" class="st9 st10 st14">Study</text>
	<text transform="matrix(1 0 0 1 469.8656 424.7881)" class="st9 st10 st14">Space</text>
	<text transform="matrix(-3.267949e-07 -1 1 -3.267949e-07 408.6855 341.9778)" class="st9 st10 st15">Study</text>
	<text transform="matrix(-3.267949e-07 -1 1 -3.267949e-07 423.2855 341.9778)" class="st9 st10 st15">Space</text>
	<rect x="553.6" y="322.1" class="st16" width="2.7" height="2.2"/>
</g>
<g id="Icons">
	<path class="st17" d="M746.9,505.2h45.2c2.9,0,5.2,2.3,5.2,5.2v30.1c0,2.9-2.3,5.2-5.2,5.2h-45.2c-2.9,0-5.2-2.3-5.2-5.2v-30.1
		C741.8,507.5,744.1,505.2,746.9,505.2z"/>
	<path class="st18" d="M865.4,537.8h45.2c2.9,0,5.2,2.3,5.2,5.2v30.1c0,2.9-2.3,5.2-5.2,5.2h-45.2c-2.9,0-5.2-2.3-5.2-5.2V543
		C860.2,540.1,862.6,537.8,865.4,537.8z"/>
	<g>
		<path class="st19" d="M689,546.1c0.1-0.3,0.3-0.4,0.7-0.4c1.1,0,2.1,0,3.2,0c0.1,0,0.1,0,0.2,0c0-0.1,0-0.2,0-0.2
			c0-1.1,0-2.1,0-3.2c0-0.5,0.2-0.7,0.7-0.7c1.1,0,2.1,0,3.2,0c0.1,0,0.1,0,0.2,0c0-0.1,0-0.1,0-0.2c0-1.1,0-2.1,0-3.2
			c0-0.4,0.2-0.6,0.6-0.6c1.1,0,2.1,0,3.2,0c0.1,0,0.1,0,0.2,0c0-0.1,0-0.2,0-0.2c0-1.1,0-2.1,0-3.2c0-0.3,0.1-0.5,0.4-0.7
			c1.4,0,2.8,0,4.2,0c0.3,0.1,0.4,0.4,0.4,0.7c0,5.2,0,10.4,0,15.6c0,0.5-0.2,0.7-0.7,0.7c-5.2,0-10.4,0-15.6,0
			c-0.3,0-0.6-0.1-0.7-0.4C689,548.9,689,547.5,689,546.1z M690,549.7c5,0,10,0,14.9,0c0-5,0-10,0-14.9c-1,0-2,0-3,0
			c0,0.1,0,0.1,0,0.2c0,1.1,0,2.1,0,3.2c0,0.2,0,0.4-0.2,0.5c-0.1,0.1-0.3,0.1-0.4,0.1c-1.1,0-2.1,0-3.2,0c-0.1,0-0.1,0-0.2,0
			c0,0.1,0,0.1,0,0.2c0,1.1,0,2.1,0,3.2c0,0.4-0.2,0.6-0.6,0.6c-1.1,0-2.1,0-3.2,0c-0.1,0-0.1,0-0.2,0c0,0.1,0,0.2,0,0.2
			c0,1.1,0,2.1,0,3.2c0,0.5-0.2,0.7-0.7,0.7c-1.1,0-2.1,0-3.2,0c-0.1,0-0.1,0-0.2,0C690,547.7,690,548.7,690,549.7z"/>
	</g>
	<g>
		<path class="st19" d="M880.3,558.2c0,4.6,0,9,0,13.6c0,0.3,0,0.4,0,0.5c-0.1,0.5-0.5,0.8-1,0.8s-0.9-0.4-0.9-0.9
			c0-0.1,0-0.3,0-0.5c0-9,0-17.9,0-27c0-0.1,0-0.4,0-0.5c0.1-0.5,0.5-0.9,1.2-0.8c0.5,0,0.9,0.4,0.9,0.9c0,0.1,0,0.3,0,0.4
			C880.3,549.2,880.3,553.6,880.3,558.2z"/>
		<g>
			<path class="st19" d="M898.3,559.2c-0.1,0.1-0.1,0.4-0.3,0.5c-0.3,0.4-0.8,0.6-1.3,0.6c-0.6-0.1-1-0.4-1.2-1
				c-0.4-1.3-0.9-2.4-1.3-3.6c-0.3-0.9-0.6-1.5-0.9-2.4c0,0.4,0.3,0.8,0.3,1.2c0.5,2.7,1,5.4,1.5,7.9c0.1,0.8-0.4,1.2-1.2,1
				c-0.3,0-0.5,0-0.8,0c0,0.1,0,0.4,0,0.5c0,2.9,0,5.9,0,8.8c0,1.2-0.8,1.7-1.7,1.5c-0.8-0.1-1.4-0.8-1.4-1.5c0-0.8,0-1.7,0-2.6
				c0-2,0-4.4,0-6.4c0-0.1,0-0.3,0-0.4c-0.3,0-0.4,0-0.6,0c0,0.1,0,0.3,0,0.4c0,2.9,0,5.9,0,8.7c0,0.4-0.1,0.8-0.3,1
				c-0.3,0.6-1,0.9-1.7,0.8c-0.6-0.1-1.2-0.8-1.3-1.4c0-0.1,0-0.4,0-0.5c0-2.8,0-5.8,0-8.6c0-0.1,0-0.3,0-0.5c-0.3,0-0.6,0-0.9,0
				c-0.8,0-1-0.4-0.9-1c0.6-2.9,1.3-6,1.7-9v-0.1c0,0.1-0.1,0.1-0.1,0.3c-0.8,1.9-1.4,4-2,5.8c-0.3,0.8-0.9,1.2-1.5,1
				c-0.9-0.1-1.4-1-1-1.7c0.4-1,0.6-1.9,1-2.8c0.6-1.8,1.3-3.7,1.9-5.4c0.4-0.9,0.9-1.5,1.7-1.9c0.3-0.1,0.6-0.3,1-0.3
				c1.5,0,3.2,0,4.7,0c1.2,0,2.4,0.6,2.9,1.5c0.4,0.6,0.5,1.3,0.8,1.8c0.9,2.3,1.4,4,2.3,6.4l0.4,0.4
				C898.6,559.1,898.3,559.1,898.3,559.2z"/>
			<path class="st19" d="M890.2,541.7c1.5,0,2.7,1.3,2.7,2.7c0,1.5-1.3,2.7-2.7,2.7s-2.7-1.3-2.7-2.7S888.7,541.7,890.2,541.7z"/>
		</g>
	</g>
	<g>
		<g>
			<path class="st19" d="M767.6,527.9c-0.3,0-0.5,0-0.8,0c0,0.1,0,0.3,0,0.4c0,4,0,7.9,0,11.9c0,0.9-0.4,1.5-1.2,1.7
				c-1,0.3-1.9-0.4-1.9-1.4c0-0.1,0-0.3,0-0.5c0-7.2,0-14.2,0-21.4c0-0.3,0.1-0.6-0.3-0.6c-0.4,0-0.3,0.4-0.3,0.6c0,3.1,0,6,0,9.1
				c0,0.6-0.1,1.2-0.8,1.4c-0.9,0.5-1.8-0.1-1.9-1c0-0.1,0-0.3,0-0.4c0-3.1,0-6.1,0-9.4c0-1.5,0.9-2.7,2.3-3.2
				c0.4-0.1,0.6-0.1,1-0.1c2.2,0,4.4,0,6.5,0c2,0,3.3,1.4,3.3,3.3c0,3.1,0,6.1,0,9.4c0,1-0.9,1.5-1.7,1.4c-0.5-0.1-0.8-0.5-0.9-1
				c0-0.1,0-0.4,0-0.6c0-2.9,0-5.9,0-8.8c0-0.3,0.1-0.6-0.3-0.6c-0.4,0-0.3,0.4-0.3,0.6c0,7.2,0,14.3,0,21.5c0,0.9-0.4,1.5-1.2,1.7
				c-1,0.3-1.8-0.4-1.9-1.4c0-0.1,0-0.3,0-0.5C767.6,535.8,767.6,532,767.6,527.9C767.6,528.1,767.6,528,767.6,527.9z"/>
			<path class="st19" d="M764.6,511.6c0-1.5,1.3-2.7,2.7-2.7s2.7,1.3,2.7,2.7c0,1.4-1.3,2.7-2.7,2.7S764.7,513.2,764.6,511.6z"/>
		</g>
		<path class="st19" d="M778.4,525.4c0,4.6,0,9,0,13.6c0,0.3,0,0.4,0,0.5c-0.1,0.5-0.5,0.8-1,0.8s-0.9-0.4-0.9-0.9
			c0-0.1,0-0.3,0-0.5c0-9,0-17.9,0-27c0-0.1,0-0.4,0-0.5c0.1-0.5,0.5-0.9,1.2-0.8c0.5,0,0.9,0.4,0.9,0.9c0,0.1,0,0.3,0,0.4
			C778.4,516.6,778.4,521,778.4,525.4z"/>
	</g>
	<g>
		<path class="st19" d="M695.2,485.1c6.4,0,12.8,0,19.2,0l0,0c1.1,0.3,1.5,0.9,1.5,1.9c0,6.1,0,12.2,0,18.3c0,1.2-0.8,1.9-1.9,1.9
			c-4.7,0-9.5,0-14.2,0c-1.4,0-2.9,0-4.3,0c-0.9,0-1.5-0.6-1.7-1.3v-0.1c0-6.4,0-12.8,0-19.2v-0.1c0.2-0.6,0.5-1,1.1-1.2
			C694.9,485.1,695.1,485.1,695.2,485.1z M705.4,506.1c0.1,0,0.1,0,0.2,0c2.8,0,5.6,0,8.4,0c0.5,0,0.7-0.2,0.7-0.7
			c0-6.1,0-12.3,0-18.4c0-0.6-0.2-0.8-0.7-0.8c-2.8,0-5.6,0-8.3,0c-0.1,0-0.2,0-0.3,0C705.4,492.9,705.4,499.5,705.4,506.1z
			 M704.2,486.4c-0.1,0-0.2,0-0.3,0c-2.8,0-5.6,0-8.3,0c-0.6,0-0.7,0.2-0.7,0.7c0,6.1,0,12.2,0,18.3c0,0.6,0.2,0.8,0.7,0.8
			c2.8,0,5.6,0,8.3,0c0.1,0,0.2,0,0.3,0C704.2,499.5,704.2,492.9,704.2,486.4z"/>
		<path class="st19" d="M693.7,505.8L693.7,505.8c0.2,0.9,0.9,1.4,1.7,1.4c1.4,0,2.9,0,4.3,0c4.7,0,9.5,0,14.2,0
			c1.2,0,1.9-0.8,1.9-1.9c0-6.1,0-12.2,0-18.3c0-1.1-0.5-1.6-1.5-1.9l0,0c0.5,0,1.1,0,1.5,0c0,7.4,0,14.9,0,22.3
			c-7.4,0-14.9,0-22.3,0C693.7,506.8,693.7,506.4,693.7,505.8z"/>
		<path class="st19" d="M695.2,485.1c-0.1,0-0.3,0.1-0.4,0.1c-0.6,0.2-1,0.7-1.1,1.2v0.1c0-0.5,0-1.1,0-1.5
			C694.2,485.1,694.7,485.1,695.2,485.1z"/>
		<path class="st19" d="M709.5,494.8c-0.3,0.3-0.6,0.6-0.9,0.9c-0.1,0.1-0.3,0.2-0.4,0.2c-0.3,0.1-0.5-0.1-0.6-0.3
			c-0.1-0.2-0.1-0.5,0-0.7c0-0.1,0.1-0.1,0.1-0.2c0.6-0.6,1.2-1.2,1.8-1.8c0.4-0.4,0.7-0.4,1.1,0c0.6,0.6,1.2,1.2,1.8,1.8
			c0.4,0.4,0.2,1-0.2,1.1c-0.3,0.1-0.5,0-0.7-0.2c-0.1-0.1-0.3-0.3-0.4-0.4c-0.1-0.1-0.3-0.3-0.5-0.5c0,0.1,0,0.2,0,0.3
			c0,1.3,0,2.6,0,3.9c0,0.4-0.3,0.7-0.6,0.7s-0.6-0.2-0.6-0.6c0-0.1,0-0.2,0-0.3c0-1.2,0-2.5,0-3.7
			C709.5,495,709.5,494.9,709.5,494.8z"/>
		<path class="st19" d="M700.2,497.5c0.3-0.3,0.5-0.6,0.8-0.8c0.1-0.1,0.3-0.2,0.4-0.2c0.3-0.1,0.5,0.1,0.6,0.3
			c0.1,0.2,0.1,0.5-0.1,0.7c-0.1,0.1-0.3,0.3-0.4,0.4c-0.5,0.5-1.1,1.1-1.5,1.5s-0.7,0.4-1.1,0c-0.6-0.6-1.2-1.2-1.8-1.8
			c-0.4-0.4-0.3-1,0.2-1.1c0.3-0.1,0.5,0,0.7,0.2c0.3,0.3,0.5,0.5,0.8,0.8c0,0,0,0,0.1,0c0-0.1,0-0.2,0-0.2c0-1.3,0-2.6,0-3.9
			c0-0.4,0.2-0.7,0.6-0.7s0.7,0.2,0.7,0.6c0,0.6,0,1.1,0,1.6C700.1,495.8,700.1,496.7,700.2,497.5
			C700.1,497.5,700.1,497.5,700.2,497.5z"/>
	</g>
</g>
<g id="Path">
	<line class="st20" x1="268.8" y1="468" x2="256.2" y2="468"/>
	<line class="st20" x1="268.8" y1="268" x2="268.8" y2="468"/>
	<line class="st20" x1="562.5" y1="268" x2="268.8" y2="268"/>
	<line class="st20" x1="562.5" y1="399.2" x2="562.5" y2="268"/>
	<line class="st20" x1="662.5" y1="399.2" x2="562.5" y2="399.2"/>
	<line class="st20" x1="662.5" y1="536.8" x2="662.5" y2="399.2"/>
	<line class="st20" x1="562.5" y1="274.2" x2="581.2" y2="274.2"/>
	<line class="st20" x1="562.5" y1="299.2" x2="581.2" y2="299.2"/>
	<line class="st20" x1="537.5" y1="268" x2="537.5" y2="255.5"/>
	<line class="st20" x1="487.5" y1="268" x2="487.5" y2="255.5"/>
	<line class="st20" x1="437.5" y1="255" x2="437.5" y2="268"/>
	<line class="st20" x1="387.5" y1="255.5" x2="387.5" y2="268"/>
	<line class="st20" x1="356.2" y1="268" x2="356.2" y2="293"/>
	<line class="st20" x1="612.5" y1="399.2" x2="612.5" y2="361.8"/>
	<line class="st20" x1="625" y1="399.2" x2="625" y2="443"/>
	<line class="st20" x1="825" y1="555.5" x2="862.5" y2="555.5"/>
	<polyline class="st20" points="825,418 825,518 825,555.5 	"/>
	<line class="st20" x1="918.8" y1="418" x2="918.8" y2="449.2"/>
	<line class="st20" x1="825" y1="418" x2="918.8" y2="418"/>
	<line class="st20" x1="662.5" y1="418" x2="825" y2="418"/>
	<line class="st20" x1="806.2" y1="518" x2="825" y2="518"/>
	<line class="st20" x1="687.5" y1="418" x2="687.5" y2="336.8"/>
	<line class="st20" x1="781.2" y1="418" x2="781.2" y2="336.8"/>
	<line class="st20" x1="887.5" y1="418" x2="887.5" y2="336.8"/>
</g>
<g id="Doors">
	<line id="Womens" class="st21" x1="862.5" y1="555.5" x2="875" y2="555.5"/>
	<line id="Mens" class="st21" x1="806.2" y1="518" x2="793.8" y2="518"/>
	<line id="Beaumier" class="st21" x1="918.8" y1="449.2" x2="918.8" y2="461.8"/>
	<line id="B_x5F_SuiteC" class="st21" x1="887.5" y1="336.8" x2="887.5" y2="324.2"/>
	<line id="B_x5F_SuiteB" class="st21" x1="781.2" y1="336.8" x2="781.2" y2="324.2"/>
	<line id="IR" class="st21" x1="687.5" y1="336.8" x2="687.5" y2="324.2"/>
	<line id="StudyE" class="st21" x1="625" y1="443" x2="625" y2="455.5"/>
	<line id="StudyF" class="st21" x1="612.5" y1="361.8" x2="612.5" y2="349.2"/>
	<line id="StudyG" class="st21" x1="581.2" y1="299.2" x2="593.8" y2="299.2"/>
	<line id="StudyH_1_" class="st21" x1="581.2" y1="274.2" x2="593.8" y2="274.2"/>
	<line id="Study026" class="st21" x1="487.5" y1="255.5" x2="487.5" y2="249.2"/>
	<line id="Study028" class="st21" x1="437.5" y1="255.5" x2="437.5" y2="249.2"/>
	<line id="Study030" class="st21" x1="387.5" y1="255.5" x2="387.5" y2="249.2"/>
	<line id="Printer" class="st21" x1="356.2" y1="293" x2="356.2" y2="299.2"/>
	<line id="SurfaceHub" class="st21" x1="256.2" y1="468" x2="256.2" y2="461.8"/>
</g>
<g id="Portals">
	<line id="Stair.1.floor.0" class="st22" x1="662.5" y1="536.8" x2="675" y2="536.8"/>
</g>
</svg>
