<?xml version="1.0" encoding="utf-8"?>
<!-- Generator: Adobe Illustrator 24.3.0, SVG Export Plug-In . SVG Version: 6.00 Build 0)  -->
<svg version="1.1" id="Layer_1" xmlns="http://www.w3.org/2000/svg" xmlns:xlink="http://www.w3.org/1999/xlink" x="0px" y="0px"
	 viewBox="0 0 1366 768" style="enable-background:new 0 0 1366 768;" xml:space="preserve">
<style type="text/css">
	.st0{fill:#ECECEC;}
	.st1{fill:none;stroke:#8F8F8F;stroke-width:2;stroke-miterlimit:9.6;}
	.st2{fill:none;stroke:#8F8F8F;stroke-width:1.92;stroke-miterlimit:9.6;}
	.st3{fill:#FFEACC;stroke:#FFD4B0;stroke-miterlimit:10;}
	.st4{fill:#939393;stroke:#8F8F8F;stroke-miterlimit:10;}
	.st5{fill:#4C4E52;}
	.st6{fill:#D1E9FF;stroke:#AFC6FF;stroke-miterlimit:10;}
	.st7{fill:#FFF39C;stroke:#FFE474;stroke-miterlimit:10;}
	.st8{fill:#FF5FE8;}
	.st9{fill:#4841FF;}
	.st10{fill:#E3D3FF;stroke:#D7B0FF;stroke-miterlimit:10;}
	.st11{fill:none;stroke:#004FE7;stroke-width:0.96;stroke-miterlimit:9.6;}
	.st12{fill:none;stroke:#1734FF;stroke-width:0.96;stroke-miterlimit:9.6;}
	.st13{fill:none;stroke:#FFC343;stroke-width:0.96;stroke-miterlimit:9.6;}
	.st14{fill:none;stroke:#FF4BE8;stroke-width:0.96;stroke-miterlimit:9.6;}
	.st15{fill:none;stroke:#BB4BE8;stroke-width:0.96;stroke-miterlimit:9.6;}
	.st16{fill:#FFFFFF;}
	.st17{fill:#333333;}
	.st18{font-family:'Retroica';}
	.st19{font-size:10.56px;}
	.st20{font-size:10.5295px;}
	.st21{font-size:15.1345px;}
	.st22{font-size:7.5974px;}
</style>
<g id="Background">
	<path class="st0" d="M933.4,107.2V57c0-4.6-3-10.4-7.6-10.4H273.6c-4.6,0-9.1,5.8-9.1,10.4v48.6c0,4-2.9,5.1-6.9,5.1h-26.7
		c-4.6,0-8.7,5.2-8.7,11.6v364.4c0,4.6,3.9,8.2,8.5,8.2l16,0.1c4.6,0,8.5,3,8.5,7.6v80.3c0.7,3.6,2.4,7.2,7,8h93.5
		c4.6,0,9.5,5.2,9.5,9.8l0.6,71.1c2.7,3.5,4.5,7,9.7,5.6l3.6-1C422,657.5,497.9,636,603.3,636c92.8,0,178,18.5,225.3,39.7
		c5.5,2.5,12.8-4.1,10.5-10.5V598c0-4.6,1.3-7.3,5.9-7.3h84.1c4.6,0,8.3-2.4,8.3-7v-80.3c0-4.6,3.7-8.4,8.4-8.4h16.7
		c4.6,0,8.3-3.7,8.3-8.3V122.3c0-5.2-4.2-9.4-9.4-9.4h-22.5C935.9,112.8,933.4,110.3,933.4,107.2z"/>
	<path class="st1" d="M351.8,590.4h-87.6c-4.6,0-8.4-3.7-8.4-8.4v-79.3c0-4.6-3.7-8.4-8.4-8.4h-16.9c-4.6,0-8.4-3.7-8.4-8.4V374.4"
		/>
	<line class="st2" x1="222.2" y1="374.4" x2="222.2" y2="216"/>
	<path class="st2" d="M222.2,216v-97.2c0-4.6,3.7-8.4,8.4-8.4h199.3c4.6,0,8.4,3.7,8.4,8.4v130.8"/>
	<path class="st2" d="M438.2,110.4h44.4c4.6,0,8.4,3.7,8.4,8.4v33.3c0,3.8,2.6,7.2,6.3,8.1c19.5,4.9,83,17.1,178.8-0.5
		c3.9-0.8,6.8-4.2,6.8-8.3v-32.7c0-4.6,3.7-8.4,8.4-8.4h34.8h236.4c4.6,0,8.4,3.7,8.4,8.4V486c0,4.6-3.7,8.4-8.4,8.4h-16.9
		c-4.6,0-8.4,3.7-8.4,8.4V582c0,4.6-3.7,8.4-8.4,8.4h-87.6h-31.3c-1.4,0-2.8-0.4-4-1.1c-9.1-5.1-54.3-27.1-162.7-27.7
		c-4.6,0-8.3-3.7-8.3-8.4v-64.3"/>
	<path class="st2" d="M683,480h116.4c4.6,0,8.4,3.7,8.4,8.4v25.2"/>
	<line class="st2" x1="731" y1="480" x2="731" y2="567.8"/>
	<path class="st2" d="M366.2,590.4v78.3c0,6,6,10,11.6,7.7c45.9-19.1,223.2-80.5,451-1.5c5.5,1.9,11.1-2.1,11.1-7.9v-76.6"/>
	<path class="st2" d="M265.4,110.4V54.9c0-4.6,3.7-8.4,8.4-8.4h651.9c4.6,0,8.4,3.7,8.4,8.4v55.5"/>
	<path class="st3" d="M748.7,188H876c4.6,0,8.4,3.7,8.4,8.4v127.3c0,4.6-3.7,8.4-8.4,8.4H748.7c-4.6,0-8.4-3.7-8.4-8.4V196.4
		C740.3,191.7,744,188,748.7,188z"/>
	<path class="st3" d="M244.5,129.5h90.8c4.6,0,8.4,3.7,8.4,8.4v60c0,4.6-3.7,8.4-8.4,8.4h-90.8c-4.6,0-8.4-3.7-8.4-8.4v-60
		C236.2,133.2,239.9,129.5,244.5,129.5z"/>
	<path class="st3" d="M313.1,335.7h93.7c4.6,0,8.4,3.7,8.4,8.4v93.6c0,4.6-3.7,8.4-8.4,8.4h-93.7c-4.6,0-8.4-3.7-8.4-8.4V344
		C304.7,339.4,308.4,335.7,313.1,335.7z"/>
	<line class="st2" x1="840" y1="480" x2="840" y2="590.4"/>
	<line class="st2" x1="807.6" y1="537.8" x2="807.6" y2="590.3"/>
	<path class="st4" d="M807.3,567.1h-76.5c0,0,57.7,10.4,77.5,22.9L807.3,567.1z"/>
	<path class="st4" d="M641,561.4h90l0.6,6.4C731.5,567.8,675.5,561.7,641,561.4z"/>
</g>
<g id="Base">
	<rect x="639.8" y="370.8" class="st5" width="52.8" height="26.4"/>
	<rect x="672.7" y="527.5" class="st5" width="57.3" height="33.9"/>
	<rect x="686.4" y="479.4" class="st5" width="43.7" height="31.8"/>
	<rect x="497.4" y="370.8" class="st5" width="51.2" height="26.4"/>
</g>
<g id="Rooms">
	<a id="GroupStudyRoom" xlink:href="#" >
		<g>
			<path class="st6" d="M382.5,249.6h41.9c4.3,0,7.9,3.5,7.9,7.9v46.7c0,4.3-3.5,7.9-7.9,7.9h-41.9c-4.3,0-7.9-3.5-7.9-7.9v-46.7
				C374.6,253.1,378.1,249.6,382.5,249.6z"/>
		</g>
	</a>
	<a id="Webinar" xlink:href="#" >
		<g>
			<path class="st6" d="M382.8,182.4h41.9c4.3,0,7.9,3.5,7.9,7.9V237c0,4.3-3.5,7.9-7.9,7.9h-41.9c-4.3,0-7.9-3.5-7.9-7.9v-46.7
				C374.9,185.9,378.4,182.4,382.8,182.4z"/>
		</g>
	</a>
	<a id="MediaEditingRoom" xlink:href="#" >
		<g>
			<path class="st6" d="M382.8,115.2h41.9c4.3,0,7.9,3.5,7.9,7.9v46.7c0,4.3-3.5,7.9-7.9,7.9h-41.9c-4.3,0-7.9-3.5-7.9-7.9v-46.7
				C374.9,118.7,378.4,115.2,382.8,115.2z"/>
		</g>
	</a>
	<g id="ServicesDesk">
		<path id="_x3C_Group_x3E__3_" class="st7" d="M505.3,221.4c-6.4,0-10.3,7.1-6.8,12.4c16,24.7,51.6,41.9,93,41.9s77-17.2,93-41.9
			c3.5-5.3-0.4-12.4-6.8-12.4H505.3z"/>
	</g>
	<a id="GroupStudy2_3_" xlink:href="#" >
		<g>
			<path class="st6" d="M916.4,293.2h42.8c2.8,0,5,2.2,5,5v78.5c0,2.8-2.2,5-5,5h-42.8c-2.8,0-5-2.2-5-5v-78.6
				C911.4,295.4,913.6,293.2,916.4,293.2z"/>
		</g>
	</a>
	<a id="GroupStudy2_1_" xlink:href="#" >
		<g>
			<path class="st6" d="M916.4,194h42.8c2.8,0,5,2.2,5,5v78.5c0,2.8-2.2,5-5,5h-42.8c-2.8,0-5-2.2-5-5v-78.6
				C911.4,196.2,913.6,194,916.4,194z"/>
		</g>
	</a>
	<a id="Womens" xlink:href="#" >
		<g>
			<rect id="_x3C_Group_x3E__1_" x="732.1" y="537.8" class="st8" width="74.7" height="29.2"/>
		</g>
	</a>
	<a id="Mens" xlink:href="#" >
		<g>
			<path id="_x3C_Group_x3E_" class="st9" d="M806.8,513.5H732V481h67.4c4.1,0,7.5,3.4,7.5,7.5L806.8,513.5L806.8,513.5z"/>
		</g>
	</a>
	<g id="TechSquad">
		<path id="_x3C_Group_x3E__2_" class="st7" d="M542.2,561.4H410.8c-4.7,0-8.5-3.8-8.5-8.5v-65.3c0-4.7,3.8-8.5,8.5-8.5h131.4
			c4.7,0,8.5,3.8,8.5,8.5v65.3C550.7,557.6,546.9,561.4,542.2,561.4z"/>
	</g>
	<a id="LaptopL" xlink:href="#" >
		<g>
			<path class="st10" d="M463.8,340h58.4c3.3,0,5.9,2.7,5.9,5.9v13.4c0,3.3-2.7,5.9-5.9,5.9h-58.4c-3.3,0-5.9-2.7-5.9-5.9v-13.4
				C458,342.7,460.6,340,463.8,340z"/>
		</g>
	</a>
	<a id="LaptopR" xlink:href="#" >
		<g>
			<path class="st10" d="M674.1,338.6h58.4c3.3,0,5.9,2.7,5.9,5.9v13.4c0,3.3-2.7,5.9-5.9,5.9h-58.4c-3.3,0-5.9-2.7-5.9-5.9v-13.4
				C668.2,341.2,670.8,338.6,674.1,338.6z"/>
		</g>
	</a>
	<a id="PrinterL" xlink:href="#" >
		<g>
			<path class="st10" d="M449.4,393.9h40.5c2.3,0,4.1,1.7,4.1,3.9v9c0,2.2-1.8,3.9-4.1,3.9h-40.5c-2.3,0-4.1-1.7-4.1-3.9v-9
				C445.3,395.7,447.1,393.9,449.4,393.9z"/>
		</g>
	</a>
	<a id="PrinterR" xlink:href="#" >
		<g>
			<path class="st10" d="M700,395.5h43.6c2.4,0,4.4,1.7,4.4,3.9v9c0,2.2-2,3.9-4.4,3.9H700c-2.4,0-4.4-1.7-4.4-3.9v-9
				C695.6,397.2,697.5,395.5,700,395.5z"/>
		</g>
	</a>
	<a id="GroupStudy_x5F_134" xlink:href="#" >
		<g>
			<path class="st6" d="M233.9,325.7h37.4c4.3,0,7.7,3.5,7.7,7.7v78c0,4.3-3.5,7.7-7.7,7.7h-37.4c-4.3,0-7.7-3.5-7.7-7.7v-78
				C226.2,329.2,229.7,325.7,233.9,325.7z"/>
		</g>
	</a>
	<a id="GroupStudy_x5F_136" xlink:href="#" >
		<g>
			<path class="st6" d="M233.9,223.1h37.4c4.3,0,7.7,3.5,7.7,7.7v78c0,4.3-3.5,7.7-7.7,7.7h-37.4c-4.3,0-7.7-3.5-7.7-7.7v-78
				C226.2,226.5,229.7,223.1,233.9,223.1z"/>
		</g>
	</a>
</g>
<g id="Portals">
	<line id="Stair.1.floor1" class="st11" x1="659" y1="542.4" x2="685.4" y2="542"/>
	<line id="Stair.2.floor1" class="st12" x1="553.4" y1="384" x2="548.6" y2="384"/>
	<line id="Stair.3.floor1" class="st12" x1="635" y1="384" x2="639.8" y2="384"/>
</g>
<g id="Doors">
	<line id="GroupStudyRoom_1_" class="st13" x1="361.4" y1="278.4" x2="375.8" y2="278.4"/>
	<line id="Webinar_1_" class="st13" x1="361.4" y1="201.6" x2="375.8" y2="201.6"/>
	<line id="MediaEditing_1_" class="st13" x1="361.4" y1="139.2" x2="375.8" y2="139.2"/>
	<line id="GroupStudy_x5F_136_1_" class="st13" x1="289.4" y1="291.6" x2="279.8" y2="291.6"/>
	<line id="GroupStudy_x5F_134_1_" class="st13" x1="289.4" y1="342.1" x2="279" y2="342.1"/>
	<line id="Circulation_1_" class="st13" x1="591.8" y1="278.4" x2="591.8" y2="273.6"/>
	<line id="GroupStudy_165_1_" class="st13" x1="899" y1="297.6" x2="913.4" y2="297.6"/>
	<line id="GroupStudy_167_1_" class="st13" x1="899.1" y1="278" x2="913.5" y2="278"/>
	<line id="TechSquad_1_" class="st13" x1="433.4" y1="460.8" x2="433.4" y2="475.2"/>
	<line id="lcd.1" class="st13" x1="522.7" y1="446.4" x2="522.7" y2="436.8"/>
	<line id="PrinterL_1_" class="st13" x1="443" y1="403.2" x2="444.5" y2="403.2"/>
	<line id="LaptopL_1_" class="st13" x1="495.8" y1="336" x2="495.8" y2="340"/>
	<line id="LaptopR_1_" class="st13" x1="702.2" y1="336" x2="702.2" y2="337.9"/>
	<line id="PrinterR_1_" class="st13" x1="750.2" y1="398.4" x2="747.9" y2="398.4"/>
	<line id="Mens_1_" class="st13" x1="789.6" y1="513.6" x2="795.3" y2="508.8"/>
	<line id="Womens_1_" class="st13" x1="755" y1="533.8" x2="757.9" y2="537.6"/>
</g>
<g id="Paths">
	<line class="st14" x1="591.8" y1="316.8" x2="591.8" y2="278.4"/>
	<line class="st14" x1="591.8" y1="384" x2="591.8" y2="316.8"/>
	<line class="st14" x1="591.8" y1="460.8" x2="591.8" y2="384"/>
	<line class="st14" x1="591.8" y1="580.8" x2="591.8" y2="460.8"/>
	<line class="st14" x1="683" y1="316.8" x2="702.2" y2="336"/>
	<line class="st14" x1="591.8" y1="316.8" x2="683" y2="316.8"/>
	<line class="st14" x1="591.8" y1="316.8" x2="591.8" y2="316.8"/>
	<line class="st14" x1="515" y1="316.8" x2="591.8" y2="316.8"/>
	<line class="st14" x1="495.8" y1="336" x2="515" y2="316.8"/>
	<line class="st14" x1="433.4" y1="403.2" x2="443" y2="403.2"/>
	<line class="st14" x1="433.4" y1="460.8" x2="433.4" y2="403.2"/>
	<line class="st14" x1="522.7" y1="460.8" x2="433.4" y2="460.8"/>
	<line class="st15" x1="591.8" y1="460.8" x2="522.7" y2="460.8"/>
	<line class="st15" x1="659" y1="460.8" x2="591.8" y2="460.8"/>
	<line class="st14" x1="769.4" y1="460.8" x2="659" y2="460.8"/>
	<line class="st14" x1="769.4" y1="398.4" x2="750.2" y2="398.4"/>
	<line class="st14" x1="769.4" y1="460.8" x2="769.4" y2="398.4"/>
	<line class="st14" x1="289.4" y1="460.8" x2="433.4" y2="460.8"/>
	<line class="st14" x1="289.4" y1="342.1" x2="289.4" y2="460.8"/>
	<line class="st14" x1="289.4" y1="316.8" x2="289.4" y2="342.1"/>
	<line class="st14" x1="289.4" y1="291.6" x2="289.4" y2="316.8"/>
	<line class="st14" x1="361.4" y1="278.4" x2="289.4" y2="316.8"/>
	<line class="st14" x1="361.4" y1="201.6" x2="361.4" y2="278.4"/>
	<line class="st14" x1="361.4" y1="139.2" x2="361.4" y2="201.6"/>
	<line class="st14" x1="899" y1="297.7" x2="899" y2="278"/>
	<line class="st14" x1="899" y1="460.8" x2="899" y2="297.7"/>
	<line class="st14" x1="816.4" y1="460.8" x2="899" y2="460.8"/>
	<line class="st14" x1="769.4" y1="460.8" x2="816.4" y2="460.8"/>
	<line class="st14" x1="659" y1="460.8" x2="659" y2="542.4"/>
	<line class="st14" x1="591.8" y1="384" x2="635" y2="384"/>
	<line class="st14" x1="553.4" y1="384" x2="591.8" y2="384"/>
	<line class="st14" x1="522.7" y1="446.4" x2="522.7" y2="460.8"/>
	<line class="st14" x1="816.4" y1="460.8" x2="816.4" y2="504"/>
	<line class="st14" x1="816.4" y1="504" x2="816.4" y2="523.2"/>
	<line class="st14" x1="789.6" y1="523.2" x2="816.4" y2="523.2"/>
	<line class="st14" x1="789.6" y1="523.2" x2="789.6" y2="513.6"/>
	<line class="st14" x1="755" y1="533.8" x2="755" y2="523.2"/>
	<line class="st14" x1="755" y1="523.2" x2="789.6" y2="523.2"/>
</g>
<g id="Icons">
	<g>
		<path class="st16" d="M692.2,547.9c0.1-0.3,0.3-0.4,0.7-0.4c1.1,0,2.1,0,3.2,0c0.1,0,0.1,0,0.2,0c0-0.1,0-0.2,0-0.2
			c0-1.1,0-2.1,0-3.2c0-0.5,0.2-0.7,0.7-0.7c1.1,0,2.1,0,3.2,0c0.1,0,0.1,0,0.2,0c0-0.1,0-0.1,0-0.2c0-1.1,0-2.1,0-3.2
			c0-0.4,0.2-0.6,0.6-0.6c1.1,0,2.1,0,3.2,0c0.1,0,0.1,0,0.2,0c0-0.1,0-0.2,0-0.2c0-1.1,0-2.1,0-3.2c0-0.3,0.1-0.5,0.4-0.7
			c1.4,0,2.8,0,4.2,0c0.3,0.1,0.4,0.4,0.4,0.7c0,5.2,0,10.4,0,15.6c0,0.5-0.2,0.7-0.7,0.7c-5.2,0-10.4,0-15.6,0
			c-0.3,0-0.6-0.1-0.7-0.4C692.2,550.7,692.2,549.2,692.2,547.9z M693.3,551.4c5,0,10,0,14.9,0c0-5,0-10,0-14.9c-1,0-2,0-3,0
			c0,0.1,0,0.1,0,0.2c0,1.1,0,2.1,0,3.2c0,0.2,0,0.4-0.2,0.5c-0.1,0.1-0.3,0.1-0.4,0.1c-1.1,0-2.1,0-3.2,0c-0.1,0-0.1,0-0.2,0
			c0,0.1,0,0.1,0,0.2c0,1.1,0,2.1,0,3.2c0,0.4-0.2,0.6-0.6,0.6c-1.1,0-2.1,0-3.2,0c-0.1,0-0.1,0-0.2,0c0,0.1,0,0.2,0,0.2
			c0,1.1,0,2.1,0,3.2c0,0.5-0.2,0.7-0.7,0.7c-1.1,0-2.1,0-3.2,0c-0.1,0-0.1,0-0.2,0C693.3,549.5,693.3,550.5,693.3,551.4z"/>
	</g>
	<g>
		<path class="st16" d="M656.6,387.3c0.1-0.3,0.3-0.4,0.7-0.4c1.1,0,2.1,0,3.2,0c0.1,0,0.1,0,0.2,0c0-0.1,0-0.2,0-0.2
			c0-1.1,0-2.1,0-3.2c0-0.5,0.2-0.7,0.7-0.7c1.1,0,2.1,0,3.2,0c0.1,0,0.1,0,0.2,0c0-0.1,0-0.1,0-0.2c0-1.1,0-2.1,0-3.2
			c0-0.4,0.2-0.6,0.6-0.6c1.1,0,2.1,0,3.2,0c0.1,0,0.1,0,0.2,0c0-0.1,0-0.2,0-0.2c0-1.1,0-2.1,0-3.2c0-0.3,0.1-0.5,0.4-0.7
			c1.4,0,2.8,0,4.2,0c0.3,0.1,0.4,0.4,0.4,0.7c0,5.2,0,10.4,0,15.6c0,0.5-0.2,0.7-0.7,0.7c-5.2,0-10.4,0-15.6,0
			c-0.3,0-0.6-0.1-0.7-0.4C656.6,390.1,656.6,388.7,656.6,387.3z M657.6,390.9c5,0,10,0,14.9,0c0-5,0-10,0-14.9c-1,0-2,0-3,0
			c0,0.1,0,0.1,0,0.2c0,1.1,0,2.1,0,3.2c0,0.2,0,0.4-0.2,0.5c-0.1,0.1-0.3,0.1-0.4,0.1c-1.1,0-2.1,0-3.2,0c-0.1,0-0.1,0-0.2,0
			c0,0.1,0,0.1,0,0.2c0,1.1,0,2.1,0,3.2c0,0.4-0.2,0.6-0.6,0.6c-1.1,0-2.1,0-3.2,0c-0.1,0-0.1,0-0.2,0c0,0.1,0,0.2,0,0.2
			c0,1.1,0,2.1,0,3.2c0,0.5-0.2,0.7-0.7,0.7c-1.1,0-2.1,0-3.2,0c-0.1,0-0.1,0-0.2,0C657.6,388.9,657.6,389.9,657.6,390.9z"/>
	</g>
	<g>
		<path class="st16" d="M513.2,387.3c0.1-0.3,0.3-0.4,0.7-0.4c1.1,0,2.1,0,3.2,0c0.1,0,0.1,0,0.2,0c0-0.1,0-0.2,0-0.2
			c0-1.1,0-2.1,0-3.2c0-0.5,0.2-0.7,0.7-0.7c1.1,0,2.1,0,3.2,0c0.1,0,0.1,0,0.2,0c0-0.1,0-0.1,0-0.2c0-1.1,0-2.1,0-3.2
			c0-0.4,0.2-0.6,0.6-0.6c1.1,0,2.1,0,3.2,0c0.1,0,0.1,0,0.2,0c0-0.1,0-0.2,0-0.2c0-1.1,0-2.1,0-3.2c0-0.3,0.1-0.5,0.4-0.7
			c1.4,0,2.8,0,4.2,0c0.3,0.1,0.4,0.4,0.4,0.7c0,5.2,0,10.4,0,15.6c0,0.5-0.2,0.7-0.7,0.7c-5.2,0-10.4,0-15.6,0
			c-0.3,0-0.6-0.1-0.7-0.4C513.2,390.1,513.2,388.7,513.2,387.3z M514.2,390.9c5,0,10,0,14.9,0c0-5,0-10,0-14.9c-1,0-2,0-3,0
			c0,0.1,0,0.1,0,0.2c0,1.1,0,2.1,0,3.2c0,0.2,0,0.4-0.2,0.5c-0.1,0.1-0.3,0.1-0.4,0.1c-1.1,0-2.1,0-3.2,0c-0.1,0-0.1,0-0.2,0
			c0,0.1,0,0.1,0,0.2c0,1.1,0,2.1,0,3.2c0,0.4-0.2,0.6-0.6,0.6c-1.1,0-2.1,0-3.2,0c-0.1,0-0.1,0-0.2,0c0,0.1,0,0.2,0,0.2
			c0,1.1,0,2.1,0,3.2c0,0.5-0.2,0.7-0.7,0.7c-1.1,0-2.1,0-3.2,0c-0.1,0-0.1,0-0.2,0C514.2,388.9,514.2,389.9,514.2,390.9z"/>
	</g>
	<g>
		<path class="st16" d="M763.7,552.6c0,3.6,0,7,0,10.6c0,0.2,0,0.3,0,0.4c-0.1,0.4-0.4,0.6-0.8,0.6c-0.4,0-0.7-0.3-0.7-0.7
			c0-0.1,0-0.2,0-0.4c0-7,0-14,0-21.1c0-0.1,0-0.3,0-0.4c0.1-0.4,0.4-0.7,0.9-0.6c0.4,0,0.7,0.3,0.7,0.7c0,0.1,0,0.2,0,0.3
			C763.7,545.6,763.7,549,763.7,552.6z"/>
		<g>
			<path class="st16" d="M777.8,553.4c-0.1,0.1-0.1,0.3-0.2,0.4c-0.2,0.3-0.6,0.5-1,0.5c-0.5-0.1-0.8-0.3-0.9-0.8
				c-0.3-1-0.7-1.9-1-2.8c-0.2-0.7-0.5-1.2-0.7-1.9c0,0.3,0.2,0.6,0.2,0.9c0.4,2.1,0.8,4.2,1.2,6.2c0.1,0.6-0.3,0.9-0.9,0.8
				c-0.2,0-0.4,0-0.6,0c0,0.1,0,0.3,0,0.4c0,2.3,0,4.6,0,6.9c0,0.9-0.6,1.3-1.3,1.2c-0.6-0.1-1.1-0.6-1.1-1.2s0-1.3,0-2
				c0-1.6,0-3.4,0-5c0-0.1,0-0.2,0-0.3c-0.2,0-0.3,0-0.5,0c0,0.1,0,0.2,0,0.3c0,2.3,0,4.6,0,6.8c0,0.3-0.1,0.6-0.2,0.8
				c-0.2,0.5-0.8,0.7-1.3,0.6c-0.5-0.1-0.9-0.6-1-1.1c0-0.1,0-0.3,0-0.4c0-2.2,0-4.5,0-6.7c0-0.1,0-0.2,0-0.4c-0.2,0-0.5,0-0.7,0
				c-0.6,0-0.8-0.3-0.7-0.8c0.5-2.3,1-4.7,1.3-7v-0.1c0,0.1-0.1,0.1-0.1,0.2c-0.6,1.5-1.1,3.1-1.6,4.5c-0.2,0.6-0.7,0.9-1.2,0.8
				c-0.7-0.1-1.1-0.8-0.8-1.3c0.3-0.8,0.5-1.5,0.8-2.2c0.5-1.4,1-2.9,1.5-4.2c0.3-0.7,0.7-1.2,1.3-1.5c0.2-0.1,0.5-0.2,0.8-0.2
				c1.2,0,2.5,0,3.7,0c0.9,0,1.9,0.5,2.3,1.2c0.3,0.5,0.4,1,0.6,1.4c0.7,1.8,1.1,3.1,1.8,5l0.3,0.3
				C778,553.3,777.8,553.3,777.8,553.4z"/>
			<path class="st16" d="M771.4,539.7c1.2,0,2.1,1,2.1,2.1c0,1.2-1,2.1-2.1,2.1s-2.1-1-2.1-2.1C769.3,540.7,770.3,539.7,771.4,539.7
				z"/>
		</g>
	</g>
	<g>
		<g>
			<path class="st16" d="M766.5,499c-0.2,0-0.4,0-0.6,0c0,0.1,0,0.2,0,0.3c0,3.1,0,6.2,0,9.3c0,0.7-0.3,1.2-0.9,1.3
				c-0.8,0.2-1.5-0.3-1.5-1.1c0-0.1,0-0.2,0-0.4c0-5.6,0-11.1,0-16.7c0-0.2,0.1-0.5-0.2-0.5s-0.2,0.3-0.2,0.5c0,2.4,0,4.7,0,7.1
				c0,0.5-0.1,0.9-0.6,1.1c-0.7,0.4-1.4-0.1-1.5-0.8c0-0.1,0-0.2,0-0.3c0-2.4,0-4.8,0-7.3c0-1.2,0.7-2.1,1.8-2.5
				c0.3-0.1,0.5-0.1,0.8-0.1c1.7,0,3.4,0,5.1,0c1.6,0,2.6,1.1,2.6,2.6c0,2.4,0,4.8,0,7.3c0,0.8-0.7,1.2-1.3,1.1
				c-0.4-0.1-0.6-0.4-0.7-0.8c0-0.1,0-0.3,0-0.5c0-2.3,0-4.6,0-6.9c0-0.2,0.1-0.5-0.2-0.5s-0.2,0.3-0.2,0.5c0,5.6,0,11.2,0,16.8
				c0,0.7-0.3,1.2-0.9,1.3c-0.8,0.2-1.4-0.3-1.5-1.1c0-0.1,0-0.2,0-0.4C766.5,505.2,766.5,502.2,766.5,499
				C766.5,499.2,766.5,499.1,766.5,499z"/>
			<path class="st16" d="M764.1,486.3c0-1.2,1-2.1,2.1-2.1s2.1,1,2.1,2.1s-1,2.1-2.1,2.1S764.2,487.5,764.1,486.3z"/>
		</g>
		<path class="st16" d="M774.9,497.1c0,3.6,0,7,0,10.6c0,0.2,0,0.3,0,0.4c-0.1,0.4-0.4,0.6-0.8,0.6c-0.4,0-0.7-0.3-0.7-0.7
			c0-0.1,0-0.2,0-0.4c0-7,0-14,0-21.1c0-0.1,0-0.3,0-0.4c0.1-0.4,0.4-0.7,0.9-0.6c0.4,0,0.7,0.3,0.7,0.7c0,0.1,0,0.2,0,0.3
			C774.9,490.2,774.9,493.6,774.9,497.1z"/>
	</g>
	<g>
		<path class="st16" d="M698.5,483.6c6.4,0,12.8,0,19.2,0l0,0c1.1,0.3,1.5,0.9,1.5,1.9c0,6.1,0,12.2,0,18.3c0,1.2-0.8,1.9-1.9,1.9
			c-4.7,0-9.5,0-14.2,0c-1.4,0-2.9,0-4.3,0c-0.9,0-1.5-0.6-1.7-1.3v-0.1c0-6.4,0-12.8,0-19.2V485c0.2-0.6,0.5-1,1.1-1.2
			C698.2,483.6,698.4,483.6,698.5,483.6z M708.7,504.6c0.1,0,0.1,0,0.2,0c2.8,0,5.6,0,8.4,0c0.5,0,0.7-0.2,0.7-0.7
			c0-6.1,0-12.3,0-18.4c0-0.6-0.2-0.8-0.7-0.8c-2.8,0-5.6,0-8.3,0c-0.1,0-0.2,0-0.3,0C708.7,491.4,708.7,498,708.7,504.6z
			 M707.5,484.9c-0.1,0-0.2,0-0.3,0c-2.8,0-5.6,0-8.3,0c-0.6,0-0.7,0.2-0.7,0.7c0,6.1,0,12.2,0,18.3c0,0.6,0.2,0.8,0.7,0.8
			c2.8,0,5.6,0,8.3,0c0.1,0,0.2,0,0.3,0C707.5,498,707.5,491.4,707.5,484.9z"/>
		<path class="st16" d="M697,504.3L697,504.3c0.2,0.9,0.9,1.4,1.7,1.4c1.4,0,2.9,0,4.3,0c4.7,0,9.5,0,14.2,0c1.2,0,1.9-0.8,1.9-1.9
			c0-6.1,0-12.2,0-18.3c0-1.1-0.5-1.6-1.5-1.9l0,0c0.5,0,1.1,0,1.5,0c0,7.4,0,14.9,0,22.3c-7.4,0-14.9,0-22.3,0
			C697,505.3,697,504.9,697,504.3z"/>
		<path class="st16" d="M698.5,483.6c-0.1,0-0.3,0.1-0.4,0.1c-0.6,0.2-1,0.7-1.1,1.2v0.1c0-0.5,0-1.1,0-1.5
			C697.5,483.6,698,483.6,698.5,483.6z"/>
		<path class="st16" d="M712.8,493.3c-0.3,0.3-0.6,0.6-0.9,0.9c-0.1,0.1-0.3,0.2-0.4,0.2c-0.3,0.1-0.5-0.1-0.6-0.3
			c-0.1-0.2-0.1-0.5,0-0.7c0-0.1,0.1-0.1,0.1-0.2c0.6-0.6,1.2-1.2,1.8-1.8c0.4-0.4,0.7-0.4,1.1,0c0.6,0.6,1.2,1.2,1.8,1.8
			c0.4,0.4,0.2,1-0.2,1.1c-0.3,0.1-0.5,0-0.7-0.2c-0.1-0.1-0.3-0.3-0.4-0.4c-0.1-0.1-0.3-0.3-0.5-0.5c0,0.1,0,0.2,0,0.3
			c0,1.3,0,2.6,0,3.9c0,0.4-0.3,0.7-0.6,0.7s-0.6-0.2-0.6-0.6c0-0.1,0-0.2,0-0.3c0-1.2,0-2.5,0-3.7
			C712.8,493.5,712.8,493.4,712.8,493.3z"/>
		<path class="st16" d="M703.5,496c0.3-0.3,0.5-0.6,0.8-0.8c0.1-0.1,0.3-0.2,0.4-0.2c0.3-0.1,0.5,0.1,0.6,0.3
			c0.1,0.2,0.1,0.5-0.1,0.7c-0.1,0.1-0.3,0.3-0.4,0.4c-0.5,0.5-1.1,1.1-1.5,1.5s-0.7,0.4-1.1,0c-0.6-0.6-1.2-1.2-1.8-1.8
			c-0.4-0.4-0.3-1,0.2-1.1c0.3-0.1,0.5,0,0.7,0.2c0.3,0.3,0.5,0.5,0.8,0.8c0,0,0,0,0.1,0c0-0.1,0-0.2,0-0.2c0-1.3,0-2.6,0-3.9
			c0-0.4,0.2-0.7,0.6-0.7c0.4,0,0.7,0.2,0.7,0.6c0,0.6,0,1.1,0,1.6C703.4,494.3,703.4,495.2,703.5,496
			C703.4,496,703.4,496,703.5,496z"/>
	</g>
</g>
<g id="LABELS">
	<g>
		<text transform="matrix(0 -1 1 0 253.4471 408.0166)" class="st17 st18 st19">Study room</text>
		<text transform="matrix(0 -1 1 0 266.1471 381.4775)" class="st17 st18 st19">134</text>
	</g>
	<text transform="matrix(1 0 0 1 383.092 137.6646)" class="st17 st18 st19">Media</text>
	<text transform="matrix(1 0 0 1 383.092 150.3646)" class="st17 st18 st19">Editing</text>
	<text transform="matrix(1 0 0 1 383.092 162.9646)" class="st17 st18 st19">Room</text>
	<text transform="matrix(0.8721 0 0 1 383.0391 208.6025)" class="st17 st18 st20">Webinar</text>
	<text transform="matrix(0.8721 0 0 1 383.0391 221.2021)" class="st17 st18 st20">Room</text>
	<text transform="matrix(1 0 0 1 383.673 273.6)" class="st17 st18 st19">Study</text>
	<text transform="matrix(1 0 0 1 383.673 286.3)" class="st17 st18 st19">Room</text>
	<g>
		<text transform="matrix(1 0 0 1 429.0947 524.9737)" class="st17 st18 st21">Tech Squad</text>
	</g>
	<text transform="matrix(0 1 -1 0 948.2578 201.6001)" class="st17 st18 st19">Study Room</text>
	<text transform="matrix(0 1 -1 0 935.5586 201.6001)" class="st17 st18 st19">167</text>
	<g>
		<text transform="matrix(1 0 0 1 527.8984 244.9001)" class="st17 st18 st21">Library Services</text>
		<text transform="matrix(1 0 0 1 572.1984 263.1001)" class="st17 st18 st21">Desk</text>
	</g>
	<text transform="matrix(1 0 0 1 776.8757 263.1973)" class="st17 st18 st19">Study Space</text>
	<text transform="matrix(1 0 0 1 254.406 171.0352)" class="st17 st18 st19">Study Space</text>
	<text transform="matrix(1 0 0 1 327.5064 394.059)" class="st17 st18 st19">Study Space</text>
	<text transform="matrix(1 0 0 1 707.2002 406.5684)" class="st17 st18 st22">Printers</text>
	<text transform="matrix(1 0 0 1 479.4214 350.4004)" class="st17 st18 st22">Laptop</text>
	<text transform="matrix(1 0 0 1 480.7214 359.5004)" class="st17 st18 st22">Rental</text>
	<text transform="matrix(1 0 0 1 688.3334 349.4805)" class="st17 st18 st22">Laptop</text>
	<text transform="matrix(1 0 0 1 689.6334 358.5805)" class="st17 st18 st22">Rental</text>
	<text transform="matrix(1 0 0 1 454.085 405.042)" class="st17 st18 st22">Printers</text>
	<g>
		<text transform="matrix(0 -1 1 0 253.5261 305.4443)" class="st17 st18 st19">Study Room</text>
		<text transform="matrix(0 -1 1 0 266.2261 279.1328)" class="st17 st18 st19">136</text>
	</g>
	<text transform="matrix(0 1 -1 0 948.2578 301.0149)" class="st17 st18 st19">Study Room</text>
	<text transform="matrix(0 1 -1 0 935.5586 301.0149)" class="st17 st18 st19">165 </text>
</g>
<path class="st2" d="M552.4,533.8v19.4c0,4.7-3.7,8.4-8.3,8.4c-108.4,0.6-153.6,22.6-162.7,27.7c-1.2,0.7-2.6,1.1-4,1.1h-31.3h-5.3"
	/>
</svg>
